<svg xmlns="http://www.w3.org/2000/svg" width="1456" height="1066" viewBox="0 0 1456 1066">
  <metadata><?xpacket begin="﻿" id="W5M0MpCehiHzreSzNTczkc9d"?>
<x:xmpmeta xmlns:x="adobe:ns:meta/" x:xmptk="Adobe XMP Core 5.6-c138 79.159824, 2016/09/14-01:09:01        ">
   <rdf:RDF xmlns:rdf="http://www.w3.org/1999/02/22-rdf-syntax-ns#">
      <rdf:Description rdf:about=""/>
   </rdf:RDF>
</x:xmpmeta>
                                                                                                    
                                                                                                    
                                                                                                    
                                                                                                    
                                                                                                    
                                                                                                    
                                                                                                    
                                                                                                    
                                                                                                    
                                                                                                    
                                                                                                    
                                                                                                    
                                                                                                    
                                                                                                    
                                                                                                    
                                                                                                    
                                                                                                    
                                                                                                    
                                                                                                    
                                                                                                    
                           
<?xpacket end="w"?></metadata>
<defs>
    <style>
      .cls-1 {
        fill: #8a1d16;
        fill-rule: evenodd;
      }
    </style>
  </defs>
  <path id="Color_Fill_2" data-name="Color Fill 2" class="cls-1" d="M254,351l46,3,3,21c40.658,29.419,132.714,2.439,193,12,48.568,7.7,83.067,17.422,104,52,40.38,66.7,5.246,200.612,20,294,3.745,23.7-1.617,45.823,6,64,9.324,22.253,35.18,9.818,54,22l2,3q-7,49.5-14,99H401l-134,1-14,10-38-9c2.8-20.817,17.732-96.652,30-105,17.627-12,63.568-6,91-6H565L552,692q-2-39.5-4-79c-6.65-43.1,1.652-77.642-26-98-32.381-23.84-137.831-14.009-194-14-31.054,0-67.435,2.533-80-16C232.842,462.642,253.23,382.515,254,351Zm579,3c-0.176,11.555,2.492,18.528,7,25,10.109,3.7,21.429,5.944,35,8,26.189,3.968,69.256-8.287,88,4q0.5,1,1,2-7,51.5-14,103c-36.89,9.727-69.184,83.387-57,135,15.826,67.043,53.527,119.518,82,175,85.69-43.258,118.15-87.643,146-189,6.57-23.913,21.78-72.942,10-101-10.35-24.656-64.74-9.163-85-24-24.88-18.225-1.76-105.6-1-141l46,3,3,21c24.44,17.266,96.7,1.608,111,29,7.66,14.664,2.85,40.458,2,59-2.17,47.05-12.61,93.106-23,134-17.34,68.253-50.27,216.727-94,251-61.93,48.536-145.2,85.11-214,126-31.307,18.605-73.85,34.65-89,69-11.329-1.35-26.727-3.85-35-9-1-1.67-2-3.33-3-5,9.6-31.36,11.989-90.641,30-113l118-67a1572.181,1572.181,0,0,1-62-152c-6.831-19.522-20.889-44.588-16-73,7.807-45.364,27.087-86.279,45-123-29.5.625-68.432,2.71-81-14-13.947-18.544-.684-108.279,5-136Z"/>
</svg>
